<svg width="18" height="16" viewBox="0 0 18 16" fill="none" xmlns="http://www.w3.org/2000/svg">
<path fill-rule="evenodd" clip-rule="evenodd" d="M0.75 3.87508C0.75 5.647 2.18642 7.08341 3.95833 7.08341H14.0417C15.8136 7.08341 17.25 5.647 17.25 3.87508C17.25 2.10317 15.8136 0.666748 14.0417 0.666748H3.95833C2.18642 0.666748 0.75 2.10317 0.75 3.87508ZM3.95833 5.25008C3.19894 5.25008 2.58333 4.63447 2.58333 3.87508C2.58333 3.11569 3.19894 2.50008 3.95833 2.50008L14.0417 2.50008C14.8011 2.50008 15.4167 3.11569 15.4167 3.87508C15.4167 4.63447 14.8011 5.25008 14.0417 5.25008H3.95833Z" fill="#A8A29E"/>
<path fill-rule="evenodd" clip-rule="evenodd" d="M0.75 12.1251C0.75 13.897 2.18642 15.3334 3.95833 15.3334H14.0417C15.8136 15.3334 17.25 13.897 17.25 12.1251C17.25 10.3532 15.8136 8.91675 14.0417 8.91675H3.95833C2.18642 8.91675 0.75 10.3532 0.75 12.1251ZM3.95833 13.5001C3.19894 13.5001 2.58333 12.8845 2.58333 12.1251C2.58333 11.3657 3.19894 10.7501 3.95833 10.7501H14.0417C14.8011 10.7501 15.4167 11.3657 15.4167 12.1251C15.4167 12.8845 14.8011 13.5001 14.0417 13.5001H3.95833Z" fill="#A8A29E"/>
</svg>
