<svg width="104" height="104" viewBox="0 0 104 104" fill="none" xmlns="http://www.w3.org/2000/svg">
<g filter="url(#filter0_dd_25312_69471)">
<path d="M12 40C12 17.9086 29.9086 0 52 0C74.0914 0 92 17.9086 92 40C92 62.0914 74.0914 80 52 80C29.9086 80 12 62.0914 12 40Z" fill="#FBBF24"/>
<path d="M46 33C46 30.2386 43.7614 28 41 28C38.2386 28 36 30.2386 36 33C36 35.7614 38.2386 38 41 38C43.7614 38 46 35.7614 46 33Z" fill="#92400E"/>
<path d="M68 33C68 30.2386 65.7614 28 63 28C60.2386 28 58 30.2386 58 33C58 35.7614 60.2386 38 63 38C65.7614 38 68 35.7614 68 33Z" fill="#92400E"/>
<path d="M52 56C49.3736 56 46.7728 55.4827 44.3463 54.4776C41.9198 53.4725 39.715 51.9993 37.8579 50.1421C36.2958 48.58 36.2958 46.0474 37.8579 44.4853C39.42 42.9232 41.9526 42.9232 43.5147 44.4853C44.629 45.5996 45.9519 46.4835 47.4078 47.0866C48.8637 47.6896 50.4241 48 52 48C53.5759 48 55.1363 47.6896 56.5922 47.0866C58.0481 46.4835 59.371 45.5996 60.4853 44.4853C62.0474 42.9232 64.58 42.9232 66.1421 44.4853C67.7042 46.0474 67.7042 48.58 66.1421 50.1421C64.285 51.9993 62.0802 53.4725 59.6537 54.4776C57.2272 55.4827 54.6264 56 52 56Z" fill="#92400E"/>
</g>
<defs>
<filter id="filter0_dd_25312_69471" x="0" y="0" width="104" height="104" filterUnits="userSpaceOnUse" color-interpolation-filters="sRGB">
<feFlood flood-opacity="0" result="BackgroundImageFix"/>
<feColorMatrix in="SourceAlpha" type="matrix" values="0 0 0 0 0 0 0 0 0 0 0 0 0 0 0 0 0 0 127 0" result="hardAlpha"/>
<feMorphology radius="2" operator="erode" in="SourceAlpha" result="effect1_dropShadow_25312_69471"/>
<feOffset dy="4"/>
<feGaussianBlur stdDeviation="3"/>
<feColorMatrix type="matrix" values="0 0 0 0 0.160784 0 0 0 0 0.145098 0 0 0 0 0.141176 0 0 0 0.03 0"/>
<feBlend mode="normal" in2="BackgroundImageFix" result="effect1_dropShadow_25312_69471"/>
<feColorMatrix in="SourceAlpha" type="matrix" values="0 0 0 0 0 0 0 0 0 0 0 0 0 0 0 0 0 0 127 0" result="hardAlpha"/>
<feMorphology radius="4" operator="erode" in="SourceAlpha" result="effect2_dropShadow_25312_69471"/>
<feOffset dy="12"/>
<feGaussianBlur stdDeviation="8"/>
<feColorMatrix type="matrix" values="0 0 0 0 0.160784 0 0 0 0 0.145098 0 0 0 0 0.141176 0 0 0 0.08 0"/>
<feBlend mode="normal" in2="effect1_dropShadow_25312_69471" result="effect2_dropShadow_25312_69471"/>
<feBlend mode="normal" in="SourceGraphic" in2="effect2_dropShadow_25312_69471" result="shape"/>
</filter>
</defs>
</svg>
