<svg width="21" height="20" viewBox="0 0 21 20" fill="none" xmlns="http://www.w3.org/2000/svg">
<path fill-rule="evenodd" clip-rule="evenodd" d="M9.08398 6.3335C9.08398 3.29593 11.5464 0.833496 14.584 0.833496C17.6216 0.833496 20.084 3.29593 20.084 6.3335C20.084 9.37106 17.6216 11.8335 14.584 11.8335C11.5464 11.8335 9.08398 9.37106 9.08398 6.3335ZM14.584 2.66683C12.5589 2.66683 10.9173 4.30845 10.9173 6.3335C10.9173 8.35854 12.5589 10.0002 14.584 10.0002C16.609 10.0002 18.2507 8.35854 18.2507 6.3335C18.2507 4.30845 16.609 2.66683 14.584 2.66683Z" fill="#A8A29E"/>
<path fill-rule="evenodd" clip-rule="evenodd" d="M0.833984 11.8335C0.833984 9.30219 2.88601 7.25016 5.41732 7.25016C7.94862 7.25016 10.0007 9.30219 10.0007 11.8335C10.0007 14.3648 7.94862 16.4168 5.41732 16.4168C2.88601 16.4168 0.833984 14.3648 0.833984 11.8335ZM5.41732 9.0835C3.89853 9.0835 2.66732 10.3147 2.66732 11.8335C2.66732 13.3523 3.89853 14.5835 5.41732 14.5835C6.9361 14.5835 8.16732 13.3523 8.16732 11.8335C8.16732 10.3147 6.9361 9.0835 5.41732 9.0835Z" fill="#A8A29E"/>
<path fill-rule="evenodd" clip-rule="evenodd" d="M13.209 12.7502C11.4371 12.7502 10.0007 14.1866 10.0007 15.9585C10.0007 17.7304 11.4371 19.1668 13.209 19.1668C14.9809 19.1668 16.4173 17.7304 16.4173 15.9585C16.4173 14.1866 14.9809 12.7502 13.209 12.7502ZM11.834 15.9585C11.834 15.1991 12.4496 14.5835 13.209 14.5835C13.9684 14.5835 14.584 15.1991 14.584 15.9585C14.584 16.7179 13.9684 17.3335 13.209 17.3335C12.4496 17.3335 11.834 16.7179 11.834 15.9585Z" fill="#A8A29E"/>
</svg>
