<svg width="20" height="18" viewBox="0 0 20 18" fill="none" xmlns="http://www.w3.org/2000/svg">
<path fill-rule="evenodd" clip-rule="evenodd" d="M7.25065 2.64007V0.75H5.41732V3.11639C2.72981 4.20427 0.833984 6.83907 0.833984 9.91667C0.833984 13.9668 4.11723 17.25 8.16732 17.25H11.834C15.8841 17.25 19.1673 13.9668 19.1673 9.91667C19.1673 6.83907 17.2715 4.20427 14.584 3.11639V0.75H12.7507V2.64007C12.4504 2.60262 12.1444 2.58333 11.834 2.58333H8.16732C7.85688 2.58333 7.55095 2.60262 7.25065 2.64007ZM15.9335 6.25C14.9264 5.12479 13.4629 4.41667 11.834 4.41667H8.16732C6.5384 4.41667 5.07488 5.12479 4.06779 6.25H15.9335ZM2.98028 8.08333H17.021C17.2237 8.65676 17.334 9.27384 17.334 9.91667C17.334 12.9542 14.8715 15.4167 11.834 15.4167H8.16732C5.12975 15.4167 2.66732 12.9542 2.66732 9.91667C2.66732 9.27384 2.7776 8.65676 2.98028 8.08333Z" fill="#A8A29E"/>
</svg>
