<svg width="16" height="20" viewBox="0 0 16 20" fill="none" xmlns="http://www.w3.org/2000/svg">
<path fill-rule="evenodd" clip-rule="evenodd" d="M7.99935 0.833496C3.94926 0.833496 0.666016 4.11674 0.666016 8.16683C0.666016 10.8825 2.1422 13.2518 4.33268 14.5189V16.4168H11.666V14.5189C13.8565 13.2518 15.3327 10.8825 15.3327 8.16683C15.3327 4.11674 12.0494 0.833496 7.99935 0.833496ZM2.49935 8.16683C2.49935 5.12926 4.96178 2.66683 7.99935 2.66683C11.0369 2.66683 13.4993 5.12926 13.4993 8.16683C13.4993 10.3595 12.2163 12.2543 10.356 13.138L9.83268 13.3866V14.5835H6.16602V13.3866L5.64268 13.138C3.78238 12.2543 2.49935 10.3595 2.49935 8.16683Z" fill="#A8A29E"/>
<path d="M4.33268 17.3335V19.1668H11.666V17.3335H4.33268Z" fill="#A8A29E"/>
</svg>
