<?xml version="1.0" encoding="utf-8"?>
<!-- Generator: Adobe Illustrator 22.0.1, SVG Export Plug-In . SVG Version: 6.00 Build 0)  -->
<svg version="1.1" id="Capa_1" xmlns="http://www.w3.org/2000/svg" xmlns:xlink="http://www.w3.org/1999/xlink" x="0px" y="0px"
	 viewBox="0 0 253.8 73.8" style="enable-background:new 0 0 253.8 73.8;" xml:space="preserve">
<style type="text/css">
	.st0{fill:#30ae5c;stroke:#30ae5c;stroke-miterlimit:10;}
</style>
<g>
	<path class="st0" d="M59.7,38.5c2.7,0,5.2,1.4,6.5,3.2l8.6-9.1c-4.1-4.2-10.1-5.7-15.1-5.7c-13.1,0-23.6,8.7-23.6,22.3
		c0,13.5,10.5,22.3,23.6,22.3c5,0,11-1.5,15.1-5.7l-8.6-9.1c-1.5,1.7-3.6,3.2-6.5,3.2c-6.5,0-10.5-4.4-10.5-10.7
		S53.2,38.5,59.7,38.5z"/>
	<rect x="79.7" y="4.4" class="st0" width="13.1" height="66"/>
	<path class="st0" d="M124.3,26.9c-13.1,0-23.6,8.7-23.6,22.3c0,13.5,10.5,22.3,23.6,22.3c13.1,0,23.6-8.7,23.6-22.3
		C147.8,35.7,137.4,26.9,124.3,26.9z M124.3,60c-6.5,0-10.5-4.4-10.5-10.7s3.9-10.7,10.5-10.7c6.5,0,10.5,4.4,10.5,10.7
		S130.8,60,124.3,60z"/>
	<path class="st0" d="M183.3,49.1c0,5.5-1,10.8-7.9,10.8c-6.7,0-6.8-6.3-6.8-11.2V28h-13.1v23.4c0,11.4,2.4,20.1,15.7,20.1
		c6.4,0,10.7-3.5,12.4-6.8h0.2v5.8h12.6V28h-13.1V49.1z"/>
	<path class="st0" d="M237.1,4.4v28.1h-0.2c-3-4.1-8-5.6-13.4-5.6c-12.1,0-19.4,10.8-19.4,22.6c0,12.8,8.3,21.9,20.9,21.9
		c5.9,0,11-3.6,13-6.6h0.2v5.6h12.1v-66H237.1z M227.7,60c-6.6,0-10.5-4.4-10.5-10.7s3.9-10.7,10.5-10.7c6.5,0,10.5,4.4,10.5,10.7
		S234.2,60,227.7,60z"/>
	<path class="st0" d="M47.5,4.4l-12,0c0,5.9-4.8,10.7-10.7,10.7C18.8,15.1,14,10.3,14,4.4H2C2,17,12.2,27.2,24.7,27.2c0,0,0,0,0,0
		C37.3,27.2,47.5,17,47.5,4.4z"/>
</g>
</svg>