<svg width="143" height="63" viewBox="0 0 143 63" fill="none" xmlns="http://www.w3.org/2000/svg">
<path d="M20.02 19.0527C26.95 19.0527 31.3133 25.2127 31.3133 32.81C31.3133 40.5613 26.8987 46.5673 20.3793 46.5673C16.0673 46.5673 12.2173 44.976 10.5233 38.354L9.65067 46.208H2.97733V8.73468H10.8313V27.6253C12.2173 20.6953 16.0673 19.0527 20.02 19.0527ZM17.1453 40.3047C20.944 40.3047 23.4593 36.814 23.4593 32.81C23.4593 28.7547 20.944 25.264 17.1453 25.264C13.1927 25.264 10.8313 28.498 10.8313 32.81C10.8313 37.122 13.244 40.3047 17.1453 40.3047ZM48.3893 46.5673C39.9193 46.5673 34.3753 40.818 34.3753 32.81C34.3753 24.648 40.0733 19.0527 48.3893 19.0527C56.7053 19.0527 62.3519 24.802 62.3519 32.81C62.3519 40.9207 56.6539 46.5673 48.3893 46.5673ZM48.3893 40.3047C52.4446 40.3047 54.6006 36.7113 54.6006 32.81C54.6006 28.7033 52.2906 25.264 48.3893 25.264C44.2826 25.264 42.1266 28.806 42.1266 32.81C42.1266 36.968 44.4366 40.3047 48.3893 40.3047ZM79.47 46.5673C71 46.5673 65.456 40.818 65.456 32.81C65.456 24.648 71.154 19.0527 79.47 19.0527C87.786 19.0527 93.4327 24.802 93.4327 32.81C93.4327 40.9207 87.7347 46.5673 79.47 46.5673ZM79.47 40.3047C83.5253 40.3047 85.6813 36.7113 85.6813 32.81C85.6813 28.7033 83.3713 25.264 79.47 25.264C75.3633 25.264 73.2073 28.806 73.2073 32.81C73.2073 36.968 75.5173 40.3047 79.47 40.3047ZM98.2307 46.208V8.73468H106.085V46.208H98.2307ZM128.893 19.412H136.747V46.208H129.971L129.201 38.508C128.021 44.8733 125.043 46.5673 121.142 46.5673C115.187 46.5673 112.005 42.666 112.005 35.89V19.412H119.859V35.2227C119.859 38.354 121.45 40.202 124.325 40.202C127.302 40.202 128.893 38.2513 128.893 34.966V19.412Z" fill="#ffffff"/>
<path d="M81.0086 52.2653C83.2564 55.1972 72.6865 62.2728 65.6286 62.2728C58.5706 62.2728 47.7204 56.3736 48.1418 52.792C49.3006 48.8943 55.996 56.3736 65.9446 56.3736C75.8932 56.3736 78.5857 49.105 81.0086 52.2653Z" fill="#ffffff"/>
<path d="M80.2712 2.85977C82.0755 5.6322 80.2033 9.49635 75.2148 13.4993C70.2262 17.5023 59.3081 17.6077 58.5707 14.7634C58.1493 12.3406 62.8897 14.3421 70.053 9.60167C76.0447 5.6366 75.9522 -3.77679 80.2712 2.85977Z" fill="#ffffff"/>
</svg>
