<?xml version="1.0" encoding="utf-8"?>
<!-- Generator: Adobe Illustrator 18.1.1, SVG Export Plug-In . SVG Version: 6.00 Build 0)  -->
<svg version="1.1" id="Capa_1" xmlns="http://www.w3.org/2000/svg" xmlns:xlink="http://www.w3.org/1999/xlink" x="0px" y="0px"
	 viewBox="0 0 3000 3000" enable-background="new 0 0 3000 3000" xml:space="preserve">
<g>
	<path d="M623.2,1262.8c0-6.4,4.3-11.8,11.8-11.8h21.9c6.4,0,12.3,4.8,12.3,11.8v226.7l92.5-96.8c4.3-4.3,7.5-7.5,14.4-7.5h37.4
		c5.3,0,8,2.7,8,5.9c0,4.3-1.1,4.8-4.3,9.1l-81.8,83.4c123,149.7,123,149.7,123,149.7c2.7,2.7,4.8,7,4.8,8.6c0,3.2-3.2,5.9-9.1,5.9
		h-36.9c-4.8,0-10.7-2.7-15-8.6l-98.9-123l-34.2,35.3v84.5c0,8-4.3,11.8-12.3,11.8h-21.9c-7.5,0-11.8-3.7-11.8-11.8L623.2,1262.8
		L623.2,1262.8z"/>
	<path d="M925.8,1277.8c19.2,0,33.7,15,33.7,33.7c0,18.2-14.4,33.2-33.7,33.2c-18.7,0-33.7-15-33.7-33.2
		C892.1,1292.8,907.1,1277.8,925.8,1277.8z M948.8,1636c0,8-4.3,11.8-11.8,11.8h-22.5c-8,0-11.8-3.7-11.8-11.8v-239
		c0-7.5,4.3-11.8,11.8-11.8H937c7,0,11.8,4.8,11.8,11.8V1636z"/>
	<path d="M1262.1,1634.4c0,8.5-5.3,13.4-15,13.4h-16c-9.1,0-15-4.8-15-13.4v-21.9c-17.6,24.1-40.6,40.6-80.7,40.6
		c-74.9,0-123-59.9-123-135.8s48.1-136.3,123-136.3c40.1,0,63.6,17.1,80.7,42.2v-159.3c0-8,4.8-12.8,15-12.8h15.5
		c9.1,0,15.5,4.8,15.5,12.8V1634.4z M1139.6,1425.8c-53.5,0-80.7,41.7-80.7,92c0,49.7,27.3,91.4,80.7,91.4
		c48.1,0,80.7-41.7,80.7-91.4C1220.4,1467.6,1188.3,1425.8,1139.6,1425.8z"/>
	<path d="M1344.9,1398.6c0-8.6,5.4-13.4,14.4-13.4h13.9c9.1,0,15,5.3,15.5,13.4l2.1,23.5c16.6-23.5,45.5-42.2,79.7-42.2
		c69,0,123,60.4,123,136.3s-54,135.8-123,135.8c-36.4,0-62.6-16-79.1-40.6v126.2c0,8-5.4,13.4-15.5,13.4h-15.5
		c-9.1,0-15.5-5.4-15.5-13.4V1398.6z M1468.5,1608.2c43.3,0,77-40.6,77-90.9s-33.7-92-77-92s-77,41.7-77.5,90.9v1.1
		C1390.9,1567.5,1425.2,1608.2,1468.5,1608.2z"/>
	<path d="M1778,1379.9c75.9,0,137.4,61.5,137.4,137.4s-61.5,136.9-137.4,136.9s-136.9-61-136.9-136.9
		C1641.1,1441.3,1702.1,1379.9,1778,1379.9z M1778,1611.4c51.3,0,94.1-42.8,94.1-94.1c0-51.3-42.8-94.6-94.1-94.6
		c-51.3,0-93.6,43.3-93.6,94.6S1726.7,1611.4,1778,1611.4z"/>
	<path d="M2099.9,1262.8v18.2c0,7-4.3,13.4-11.8,13.4c-25.1,1.1-39.6,7.5-39.6,40.1v50.8h38.5c8,0,12.8,3.7,12.8,13.4v13.9
		c0,9.1-4.8,15-12.8,15h-38.5v206.9c0,8.5-7.5,13.4-13.9,13.4h-20.3c-8.5,0-12.8-5.3-12.8-13.4v-206.9h-27.8
		c-7.5,0-13.4-5.9-13.4-15v-13.9c0-9.6,5.9-13.4,13.4-13.4h27.8v-51.4c0-49.7,24.6-84,85.6-85
		C2095.1,1248.9,2099.9,1254.2,2099.9,1262.8z"/>
	<path d="M2235.7,1741.8c-2.7,5.9-7.5,9.1-14.4,9.1h-21.4c-8,0-12.3-2.7-12.3-9.1c0-1.6,0.5-3.2,1.1-5.3l38.5-94.1l-98.4-238.5
		c-2.1-4.8-2.1-9.1-2.1-10.2c0-5.9,3.7-8.5,11.2-8.5h23c6.4,0,11.8,3.7,13.9,9.6c23.5,62,51.3,132.1,76.5,193.6l76.5-194.6
		c3.2-6.4,7.5-8.5,14.4-8.5h21.9c9.1,0,12.8,4.3,12.8,10.7c0,1.6,0,3.7-4.3,13.4C2326,1519.9,2281.7,1631.8,2235.7,1741.8z"/>
</g>
</svg>
