<svg class="ico-svg  footer-main__logo" width="189" viewBox="0 0 140 33">
                        <path d="M118.603 15.308V8.9261H139.238C139.427 8.96155 139.545 9.03837 139.593 9.15655C139.64 9.26292 139.664 9.42246 139.664 9.63519V15.308C139.64 15.5916 139.475 15.7334 139.167 15.7334H134.133V32.0427C134.133 32.0545 134.127 32.0841 134.115 32.1314C134.103 32.1786 134.097 32.2082 134.097 32.22C134.097 32.2318 134.091 32.2554 134.079 32.2909C134.068 32.3264 134.056 32.35 134.044 32.3618C134.032 32.3736 134.02 32.3973 134.009 32.4327C133.997 32.4564 133.979 32.4741 133.955 32.4859C133.944 32.4859 133.92 32.4977 133.885 32.5214C133.861 32.5332 133.831 32.545 133.796 32.5568C133.772 32.5686 133.737 32.5804 133.689 32.5923C133.654 32.5923 133.613 32.5982 133.565 32.61H132.431C130.918 32.61 130.162 32.5627 130.162 32.4682C130.067 32.4682 129.925 32.4741 129.736 32.4859C129.547 32.4977 129.405 32.5036 129.311 32.5036H127.893C127.621 32.5036 127.231 32.5095 126.723 32.5214C126.226 32.5332 125.836 32.5391 125.553 32.5391H124.56L123.851 32.0427V28.2136C123.863 27.5281 123.91 26.0626 123.993 23.8172C124.087 21.5717 124.134 19.7989 124.134 18.4989V18.038C124.134 17.9435 124.14 17.7957 124.152 17.5948C124.164 17.3939 124.17 17.2462 124.17 17.1516C124.17 17.0453 124.164 16.8325 124.152 16.5135C124.14 16.1825 124.134 15.9698 124.134 15.8753H119.703C119.443 15.8753 119.194 15.8339 118.958 15.7512C118.722 15.6566 118.603 15.5089 118.603 15.308Z"></path>
                        <path d="M99.635 10.3443C99.635 9.63519 99.6646 9.22155 99.7237 9.10337C99.83 8.93791 100.001 8.85519 100.238 8.85519H100.663C100.852 8.85519 100.982 8.867 101.053 8.89064H101.975C103.169 8.89064 104.971 8.8611 107.382 8.802C109.805 8.74291 111.619 8.71336 112.824 8.71336H117.54C117.847 8.74882 118.001 8.90246 118.001 9.17428V15.0953C117.989 15.1662 117.965 15.2312 117.93 15.2903C117.906 15.3375 117.882 15.373 117.859 15.3966C117.847 15.4084 117.794 15.4498 117.699 15.5207C117.605 15.5798 117.54 15.6271 117.504 15.6625H109.279V17.8607H110.059C110.744 17.8607 111.79 17.8371 113.197 17.7898C114.603 17.7426 115.684 17.7189 116.441 17.7189C116.772 17.7189 116.996 17.7839 117.114 17.9139C117.232 18.0439 117.292 18.2271 117.292 18.4635C117.292 18.5226 117.28 18.623 117.256 18.7648C117.232 18.9067 117.221 19.0071 117.221 19.0662V19.7399C117.221 19.7871 117.227 19.8876 117.238 20.0412C117.25 20.183 117.256 20.3071 117.256 20.4135V20.9099C117.256 21.1699 117.268 21.4299 117.292 21.6899C117.315 21.9499 117.327 22.1744 117.327 22.3635V22.8244C117.268 22.9663 117.221 23.0608 117.185 23.1081C117.15 23.1553 117.091 23.179 117.008 23.179V23.1435C116.571 23.1435 115.814 23.1731 114.739 23.2322C113.675 23.2913 112.824 23.3208 112.186 23.3208H109.35V25.5899C109.444 25.5899 109.586 25.5958 109.775 25.6076C109.964 25.6195 110.106 25.6254 110.201 25.6254C110.732 25.6254 111.518 25.6076 112.558 25.5722C113.598 25.5367 114.349 25.519 114.81 25.519H117.079C117.693 25.519 118.083 25.5899 118.249 25.7317C118.308 25.8026 118.355 25.8736 118.391 25.9445V31.6173C118.391 31.8654 118.343 32.0545 118.249 32.1845C118.154 32.3145 117.977 32.3854 117.717 32.3973H100.167L99.635 31.9364V10.3443Z"></path>
                        <path d="M75.7739 32.5391L75.4016 20.7326C75.4016 19.9171 75.4134 18.9953 75.437 17.9671C75.4607 16.9389 75.4902 16.0112 75.5257 15.1839C75.5611 14.3566 75.5907 13.4171 75.6143 12.3652C75.6498 11.3134 75.6675 10.3561 75.6675 9.49337C75.6675 9.25701 75.7443 9.10928 75.8979 9.05019C76.0634 8.97928 76.2643 8.95564 76.5007 8.97928C76.7489 9.00291 77.0266 8.98519 77.3339 8.9261H90.0267C90.7477 8.9261 91.4686 9.02064 92.1895 9.20973C92.9104 9.38701 93.6136 9.68247 94.2991 10.0961C94.9963 10.4979 95.605 10.9943 96.125 11.5852C96.6568 12.1643 97.0823 12.8911 97.4014 13.7657C97.7323 14.6402 97.8977 15.6034 97.8977 16.6553C97.8977 18.0498 97.6023 19.2908 97.0114 20.378C96.4205 21.4535 95.5341 22.4699 94.3522 23.4272C92.8986 24.1835 91.1495 24.6208 89.1049 24.739H88.5376C88.0649 24.8335 87.5922 24.8808 87.1194 24.8808H85.7012C85.6303 24.8808 85.5712 24.8926 85.524 24.9163C85.524 28.0127 85.5712 30.3527 85.6658 31.9364C85.6067 32.1727 85.4767 32.3323 85.2758 32.415C85.0867 32.4977 84.7558 32.5391 84.283 32.5391H75.7739ZM84.6376 18.9953V19.3144C84.6494 19.3262 84.7262 19.3676 84.868 19.4385C85.0217 19.4976 85.0985 19.5389 85.0985 19.5626V19.598C85.0749 19.598 85.0631 19.5744 85.0631 19.5271C85.0867 19.5508 85.1576 19.5626 85.2758 19.5626C86.3276 19.5626 87.214 19.3262 87.9349 18.8535C88.6676 18.3807 89.034 17.648 89.034 16.6553C89.034 16.2062 88.9572 15.8221 88.8035 15.503C88.6499 15.1839 88.4608 14.9416 88.2363 14.7762C88.0235 14.5989 87.7281 14.4689 87.3499 14.3862C86.9835 14.2916 86.6467 14.2325 86.3394 14.2089C86.0322 14.1852 85.6422 14.1734 85.1694 14.1734C85.1576 14.1852 85.1103 14.2266 85.0276 14.2975C84.9449 14.3684 84.8858 14.4216 84.8503 14.4571V16.3007C84.7085 17.4353 84.6376 18.3335 84.6376 18.9953Z"></path>
                        <path d="M48.509 20.4135L48.4736 20.0235C48.6981 18.0971 48.9108 16.7557 49.1117 15.9994C49.5727 14.2266 50.3999 12.7434 51.5936 11.5498L52.019 11.1243C52.5863 10.4625 53.4491 9.8952 54.6073 9.42246H55.2809C56.4391 8.93791 58.3418 8.48882 60.9892 8.07518C61.651 8.07518 62.3423 8.12836 63.0633 8.23472C63.796 8.32927 64.6055 8.49473 65.4919 8.73109C66.3783 8.95564 67.2292 9.32201 68.0447 9.8302C68.872 10.3266 69.5574 10.9234 70.1011 11.6207V12.117C72.0393 14.5398 73.0084 17.258 73.0084 20.2717C73.0084 23.6635 72.2284 26.429 70.6683 28.5681L69.9592 29.4545C69.4156 30.1281 68.7361 30.7072 67.9206 31.1918C67.1169 31.6763 66.2601 32.0486 65.3501 32.3086C64.4401 32.5568 63.5655 32.7341 62.7264 32.8405C61.8992 32.9468 61.0719 33 60.2446 33C59.0273 33 57.8632 32.8582 56.7523 32.5745C55.6532 32.2791 54.6191 31.8241 53.65 31.2095C52.6927 30.595 51.8477 29.8386 51.1149 28.9404C50.3822 28.0422 49.7854 26.9608 49.3245 25.6963C48.8754 24.4199 48.6036 23.0135 48.509 21.4771V20.4135ZM58.2591 20.5553C58.2591 24.7154 59.0509 26.7954 60.6346 26.7954C61.0719 26.7954 61.4501 26.7127 61.7691 26.5472C62.1001 26.3817 62.366 26.1276 62.5669 25.7849C62.7678 25.4422 62.9333 25.0935 63.0633 24.739C63.1933 24.3844 63.2819 23.9413 63.3292 23.4094C63.3883 22.8776 63.4237 22.4108 63.4355 22.009C63.4592 21.6071 63.471 21.1226 63.471 20.5553V19.9171C63.471 19.3026 63.4355 18.7117 63.3646 18.1444C63.2937 17.5771 63.1696 17.0098 62.9923 16.4425C62.8269 15.8634 62.5669 15.4025 62.2123 15.0598C61.8578 14.7052 61.4264 14.528 60.9182 14.528C59.1455 14.528 58.2591 16.2771 58.2591 19.7753V20.5553Z"></path>
                        <path d="M73.1442 20.5754L73.1799 20.9682C72.9538 22.908 72.7395 24.2588 72.5372 25.0204C72.0731 26.8056 71.24 28.2991 70.038 29.5011L69.6096 29.9296C69.0383 30.596 68.1696 31.1672 67.0033 31.6433H66.3249C65.1586 32.1312 63.2426 32.5835 60.5768 33C59.9103 33 59.2141 32.9464 58.4882 32.8393C57.7503 32.7441 56.9351 32.5775 56.0425 32.3395C55.15 32.1134 54.2931 31.7444 53.4719 31.2327C52.6389 30.7329 51.9486 30.1319 51.4012 29.4297V28.9299C49.4494 26.4902 48.4735 23.753 48.4735 20.7182C48.4735 17.3027 49.259 14.5178 50.8299 12.3638L51.544 11.4712C52.0914 10.7929 52.7757 10.2097 53.5969 9.72177C54.4062 9.23383 55.269 8.85895 56.1853 8.59713C57.1017 8.34721 57.9824 8.1687 58.8274 8.06159C59.6604 7.95448 60.4935 7.90093 61.3265 7.90093C62.5523 7.90093 63.7246 8.04374 64.8433 8.32936C65.9501 8.62689 66.9914 9.08507 67.9673 9.70392C68.9312 10.3228 69.7822 11.0844 70.52 11.9889C71.2579 12.8934 71.8589 13.9823 72.323 15.2557C72.7752 16.541 73.049 17.9572 73.1442 19.5043V20.5754ZM63.3259 20.4326C63.3259 16.2435 62.5285 14.1489 60.9338 14.1489C60.4935 14.1489 60.1126 14.2322 59.7913 14.3988C59.4581 14.5655 59.1903 14.8213 58.988 15.1664C58.7857 15.5116 58.6191 15.8627 58.4882 16.2197C58.3573 16.5767 58.268 17.023 58.2204 17.5585C58.1609 18.0941 58.1252 18.5642 58.1133 18.9688C58.0895 19.3734 58.0776 19.8614 58.0776 20.4326V21.0753C58.0776 21.6941 58.1133 22.2892 58.1847 22.8604C58.2561 23.4316 58.3811 24.0029 58.5596 24.5741C58.7262 25.1573 58.988 25.6214 59.345 25.9665C59.7021 26.3236 60.1365 26.5021 60.6482 26.5021C62.4333 26.5021 63.3259 24.7407 63.3259 21.2181V20.4326Z"></path>
                        <path d="M46.3108 9.59974V31.4045C46.3108 31.6527 46.299 31.8536 46.2753 32.0073C46.2635 32.1491 46.2163 32.285 46.1335 32.415C46.0508 32.545 45.9326 32.61 45.779 32.61H36.2104C36.1867 32.5864 36.1538 32.5692 36.1538 32.4561C36.1538 32.3995 36.1707 32.1695 36.1707 31.83V24.6681C36.1707 24.4081 36.1471 24.2604 36.0998 24.2249C36.0643 24.1894 35.8989 24.1717 35.6034 24.1717H34.3979C34.1143 24.1717 33.7834 24.1954 33.4052 24.2426V31.9009C33.3579 32.1136 33.2634 32.2495 33.1216 32.3086C32.9916 32.3677 32.7906 32.3973 32.5188 32.3973H31.7034C31.1479 32.3973 30.2733 32.4091 29.0797 32.4327C27.8979 32.4564 26.9997 32.4682 26.3851 32.4682H24.0451C23.5369 32.4682 23.2828 32.1845 23.2828 31.6173L23.3892 9.28064C23.3892 9.22155 23.4069 9.17428 23.4424 9.13883C23.4778 9.09155 23.5487 9.03246 23.6551 8.96155C23.7615 8.87882 23.8206 8.83155 23.8324 8.81973H33.3697V16.4425H36.4543V8.64246H45.4953C45.779 8.64246 45.9858 8.70746 46.1158 8.83746C46.2458 8.96746 46.3108 9.22155 46.3108 9.59974Z"></path>
                        <path d="M0 30.0732V9.29375C0 9.22095 0.0311663 9.15855 0.0934987 9.10655C0.16622 9.05455 0.275302 9.01815 0.420744 8.99735C0.566186 8.97655 0.690851 8.96095 0.794738 8.95055C0.909015 8.94015 1.06485 8.93495 1.26223 8.93495C1.47001 8.92455 1.61025 8.91935 1.68298 8.91935H14.3365C15.3753 8.91935 16.3571 9.08575 17.2817 9.41855C18.2063 9.74096 19.027 10.2142 19.7438 10.8382C20.4606 11.4622 21.0268 12.2682 21.4424 13.2562C21.8579 14.2442 22.0657 15.357 22.0657 16.5946C22.0657 17.5098 21.9566 18.3471 21.7384 19.1063C21.5307 19.8655 21.2502 20.5155 20.8969 21.0563C20.5541 21.5867 20.1282 22.0651 19.6191 22.4915C19.1205 22.9179 18.6062 23.2611 18.0764 23.5211C17.557 23.7811 16.9804 24.0047 16.3467 24.1919C15.713 24.3687 15.126 24.4987 14.5858 24.5819C14.056 24.6651 13.495 24.7275 12.9028 24.7691H9.91086C9.82775 26.402 9.78619 28.2324 9.78619 30.2604V32.0076C9.75502 32.382 9.57842 32.5692 9.25637 32.5692H0.405161C0.135054 31.8516 0 31.0196 0 30.0732ZM8.78887 19.1531L9.28753 19.8395C9.71347 19.8395 10.1186 19.8083 10.503 19.7459C10.8978 19.6835 11.2822 19.5743 11.6562 19.4183C12.0302 19.2623 12.3522 19.0647 12.6223 18.8255C12.8924 18.5759 13.1106 18.2639 13.2768 17.8895C13.443 17.5046 13.5261 17.073 13.5261 16.5946C13.5261 16.2306 13.4742 15.9082 13.3703 15.6274C13.2768 15.3362 13.1573 15.1022 13.0119 14.9254C12.8768 14.7382 12.6846 14.577 12.4353 14.4418C12.1964 14.3066 11.9678 14.2078 11.7497 14.1454C11.5419 14.0726 11.2718 14.0206 10.9393 13.9894C10.6173 13.9478 10.3472 13.927 10.129 13.927C9.92124 13.9166 9.65114 13.9114 9.3187 13.9114C8.96548 14.0778 8.78887 15.825 8.78887 19.1531Z"></path>
                        <path d="M54.246 6.1851C54.246 7.28694 53.4421 8.18016 52.4505 8.18016C51.4588 8.18016 50.6549 7.28694 50.6549 6.1851C50.6549 5.08326 51.4588 4.19004 52.4505 4.19004C53.4421 4.19004 54.246 5.08326 54.246 6.1851Z"></path>
                        <path d="M60.0347 3.09234C60.0347 4.8002 58.9182 6.18468 57.5409 6.18468C56.1636 6.18468 55.0471 4.8002 55.0471 3.09234C55.0471 1.38449 56.1636 0 57.5409 0C58.9182 0 60.0347 1.38449 60.0347 3.09234Z"></path>
                        <path d="M66.2195 3.09234C66.2195 4.8002 65.1029 6.18468 63.7256 6.18468C62.3483 6.18468 61.2318 4.8002 61.2318 3.09234C61.2318 1.38449 62.3483 0 63.7256 0C65.1029 0 66.2195 1.38449 66.2195 3.09234Z"></path>
                        <path d="M70.6068 6.1851C70.6068 7.28694 69.8029 8.18016 68.8112 8.18016C67.8196 8.18016 67.0157 7.28694 67.0157 6.1851C67.0157 5.08326 67.8196 4.19004 68.8112 4.19004C69.8029 4.19004 70.6068 5.08326 70.6068 6.1851Z"></path>
                    </svg>
