<svg width="104" height="104" viewBox="0 0 104 104" fill="none" xmlns="http://www.w3.org/2000/svg">
<g filter="url(#filter0_dd_25312_69365)">
<path d="M12 40C12 17.9086 29.9086 0 52 0C74.0914 0 92 17.9086 92 40C92 62.0914 74.0914 80 52 80C29.9086 80 12 62.0914 12 40Z" fill="#C084FC"/>
<path d="M34.3052 29.4024C35.7401 28.574 37.5748 29.0656 38.4033 30.5005C38.6666 30.9566 39.0453 31.3353 39.5013 31.5986C39.9574 31.8619 40.4747 32.0005 41.0013 32.0005C41.528 32.0005 42.0453 31.8619 42.5013 31.5986C42.9574 31.3353 43.3361 30.9566 43.5994 30.5005C44.4278 29.0656 46.2626 28.574 47.6975 29.4024C49.1324 30.2309 49.624 32.0656 48.7956 33.5005C48.0057 34.8687 46.8695 36.0048 45.5013 36.7947C44.1332 37.5846 42.5812 38.0005 41.0013 38.0005C39.4215 38.0005 37.8695 37.5846 36.5013 36.7947C35.1332 36.0048 33.997 34.8687 33.2071 33.5005C32.3787 32.0656 32.8703 30.2309 34.3052 29.4024Z" fill="#6B21A8"/>
<path d="M56.3052 29.4024C57.7401 28.574 59.5748 29.0656 60.4033 30.5005C60.6666 30.9566 61.0453 31.3353 61.5013 31.5986C61.9574 31.8619 62.4747 32.0005 63.0013 32.0005C63.528 32.0005 64.0453 31.8619 64.5013 31.5986C64.9574 31.3353 65.3361 30.9566 65.5994 30.5005C66.4278 29.0656 68.2626 28.574 69.6975 29.4024C71.1324 30.2309 71.624 32.0656 70.7956 33.5005C70.0057 34.8687 68.8695 36.0048 67.5013 36.7947C66.1332 37.5846 64.5812 38.0005 63.0013 38.0005C61.4215 38.0005 59.8695 37.5846 58.5013 36.7947C57.1332 36.0048 55.997 34.8687 55.2071 33.5005C54.3787 32.0656 54.8703 30.2309 56.3052 29.4024Z" fill="#6B21A8"/>
<path d="M52.0016 42.0005C49.3751 42.0005 46.7744 42.5178 44.3479 43.5229C41.9214 44.528 39.7166 46.0012 37.8594 47.8584C36.7154 49.0024 36.3732 50.7228 36.9923 52.2175C37.6115 53.7122 39.07 54.6868 40.6879 54.6868L63.3153 54.6868C64.9331 54.6868 66.3917 53.7122 67.0108 52.2175C67.6299 50.7228 67.2877 49.0024 66.1437 47.8584C64.2865 46.0012 62.0818 44.528 59.6552 43.5229C57.2287 42.5178 54.628 42.0005 52.0016 42.0005Z" fill="#6B21A8"/>
</g>
<defs>
<filter id="filter0_dd_25312_69365" x="0" y="0" width="104" height="104" filterUnits="userSpaceOnUse" color-interpolation-filters="sRGB">
<feFlood flood-opacity="0" result="BackgroundImageFix"/>
<feColorMatrix in="SourceAlpha" type="matrix" values="0 0 0 0 0 0 0 0 0 0 0 0 0 0 0 0 0 0 127 0" result="hardAlpha"/>
<feMorphology radius="2" operator="erode" in="SourceAlpha" result="effect1_dropShadow_25312_69365"/>
<feOffset dy="4"/>
<feGaussianBlur stdDeviation="3"/>
<feColorMatrix type="matrix" values="0 0 0 0 0.160784 0 0 0 0 0.145098 0 0 0 0 0.141176 0 0 0 0.03 0"/>
<feBlend mode="normal" in2="BackgroundImageFix" result="effect1_dropShadow_25312_69365"/>
<feColorMatrix in="SourceAlpha" type="matrix" values="0 0 0 0 0 0 0 0 0 0 0 0 0 0 0 0 0 0 127 0" result="hardAlpha"/>
<feMorphology radius="4" operator="erode" in="SourceAlpha" result="effect2_dropShadow_25312_69365"/>
<feOffset dy="12"/>
<feGaussianBlur stdDeviation="8"/>
<feColorMatrix type="matrix" values="0 0 0 0 0.160784 0 0 0 0 0.145098 0 0 0 0 0.141176 0 0 0 0.08 0"/>
<feBlend mode="normal" in2="effect1_dropShadow_25312_69365" result="effect2_dropShadow_25312_69365"/>
<feBlend mode="normal" in="SourceGraphic" in2="effect2_dropShadow_25312_69365" result="shape"/>
</filter>
</defs>
</svg>
