<svg width="104" height="104" viewBox="0 0 104 104" fill="none" xmlns="http://www.w3.org/2000/svg">
<g filter="url(#filter0_dd_25312_69569)">
<path d="M12 40C12 17.9086 29.9086 0 52 0C74.0914 0 92 17.9086 92 40C92 62.0914 74.0914 80 52 80C29.9086 80 12 62.0914 12 40Z" fill="#9BB167"/>
<path d="M34.3052 37.5981C35.7401 38.4265 37.5748 37.9349 38.4033 36.5C38.6666 36.0439 39.0453 35.6652 39.5013 35.4019C39.9574 35.1386 40.4747 35 41.0013 35C41.528 35 42.0453 35.1386 42.5013 35.4019C42.9574 35.6652 43.3361 36.0439 43.5994 36.5C44.4278 37.9349 46.2626 38.4265 47.6975 37.5981C49.1324 36.7696 49.624 34.9349 48.7956 33.5C48.0057 32.1318 46.8695 30.9957 45.5013 30.2058C44.1332 29.4159 42.5812 29 41.0013 29C39.4215 29 37.8695 29.4159 36.5013 30.2058C35.1332 30.9957 33.997 32.1318 33.2071 33.5C32.3787 34.9349 32.8703 36.7696 34.3052 37.5981Z" fill="#3F4B29"/>
<path d="M56.3052 37.5981C57.7401 38.4265 59.5748 37.9349 60.4033 36.5C60.6666 36.0439 61.0453 35.6652 61.5013 35.4019C61.9574 35.1386 62.4747 35 63.0013 35C63.528 35 64.0453 35.1386 64.5013 35.4019C64.9574 35.6652 65.3361 36.0439 65.5994 36.5C66.4278 37.9349 68.2626 38.4265 69.6975 37.5981C71.1324 36.7696 71.624 34.9349 70.7956 33.5C70.0057 32.1318 68.8695 30.9957 67.5013 30.2058C66.1332 29.4159 64.5812 29 63.0013 29C61.4215 29 59.8695 29.4159 58.5013 30.2058C57.1332 30.9957 55.997 32.1318 55.2071 33.5C54.3787 34.9349 54.8703 36.7696 56.3052 37.5981Z" fill="#3F4B29"/>
<path d="M52.0016 56C49.3751 56 46.7744 55.4827 44.3479 54.4776C41.9214 53.4725 39.7166 51.9993 37.8594 50.1421C36.7154 48.9981 36.3732 47.2777 36.9923 45.783C37.6115 44.2883 39.07 43.3137 40.6879 43.3137L63.3153 43.3137C64.9331 43.3137 66.3917 44.2883 67.0108 45.783C67.6299 47.2777 67.2877 48.9981 66.1437 50.1421C64.2865 51.9993 62.0818 53.4725 59.6552 54.4776C57.2287 55.4827 54.628 56 52.0016 56Z" fill="#3F4B29"/>
</g>
<defs>
<filter id="filter0_dd_25312_69569" x="0" y="0" width="104" height="104" filterUnits="userSpaceOnUse" color-interpolation-filters="sRGB">
<feFlood flood-opacity="0" result="BackgroundImageFix"/>
<feColorMatrix in="SourceAlpha" type="matrix" values="0 0 0 0 0 0 0 0 0 0 0 0 0 0 0 0 0 0 127 0" result="hardAlpha"/>
<feMorphology radius="2" operator="erode" in="SourceAlpha" result="effect1_dropShadow_25312_69569"/>
<feOffset dy="4"/>
<feGaussianBlur stdDeviation="3"/>
<feColorMatrix type="matrix" values="0 0 0 0 0.160784 0 0 0 0 0.145098 0 0 0 0 0.141176 0 0 0 0.03 0"/>
<feBlend mode="normal" in2="BackgroundImageFix" result="effect1_dropShadow_25312_69569"/>
<feColorMatrix in="SourceAlpha" type="matrix" values="0 0 0 0 0 0 0 0 0 0 0 0 0 0 0 0 0 0 127 0" result="hardAlpha"/>
<feMorphology radius="4" operator="erode" in="SourceAlpha" result="effect2_dropShadow_25312_69569"/>
<feOffset dy="12"/>
<feGaussianBlur stdDeviation="8"/>
<feColorMatrix type="matrix" values="0 0 0 0 0.160784 0 0 0 0 0.145098 0 0 0 0 0.141176 0 0 0 0.08 0"/>
<feBlend mode="normal" in2="effect1_dropShadow_25312_69569" result="effect2_dropShadow_25312_69569"/>
<feBlend mode="normal" in="SourceGraphic" in2="effect2_dropShadow_25312_69569" result="shape"/>
</filter>
</defs>
</svg>
